<?xml version="1.0" encoding="UTF-8"?> <svg xmlns="http://www.w3.org/2000/svg" xmlns:xlink="http://www.w3.org/1999/xlink" id="Layer_1" data-name="Layer 1" viewBox="0 0 179 55"><defs><style>.cls-1{fill:none;}.cls-2{fill:#404041;}.cls-3{clip-path:url(#clip-path);}.cls-4{fill:url(#linear-gradient);}.cls-5{fill:url(#linear-gradient-2);}.cls-6{fill:url(#linear-gradient-3);}.cls-7{fill:url(#linear-gradient-4);}.cls-8{fill:url(#linear-gradient-5);}.cls-9{fill:url(#linear-gradient-6);}.cls-10{fill:url(#linear-gradient-7);}.cls-11{fill:url(#linear-gradient-8);}</style><clipPath id="clip-path"><path class="cls-1" d="M119.55,19.53c-4.37-7.35-14.28-5.79-14.28-5.79,3.11-8-3.59-14.45-11.7-13.68A11.11,11.11,0,0,0,83.1,9.49C79.79,3.8,72.32,3.65,68.55,6.86c-4.06,3.46-1,11.05-1,11.05-4.5-1.88-11,1.89-9.15,9.74s11.18,8.41,11.18,8.41h38.63C115.48,36.51,124.39,27.68,119.55,19.53Z"></path></clipPath><linearGradient id="linear-gradient" x1="114.88" y1="750.96" x2="79.22" y2="785.86" gradientTransform="matrix(1, 0, 0, -1, 0, 786.53)" gradientUnits="userSpaceOnUse"><stop offset="0" stop-color="#2a5fa1"></stop><stop offset="1" stop-color="#5eb8c2"></stop></linearGradient><linearGradient id="linear-gradient-2" x1="112.53" y1="748.56" x2="76.87" y2="783.46" href="#linear-gradient"></linearGradient><linearGradient id="linear-gradient-3" x1="110.27" y1="746.25" x2="74.61" y2="781.15" href="#linear-gradient"></linearGradient><linearGradient id="linear-gradient-4" x1="107.78" y1="743.7" x2="72.11" y2="778.6" href="#linear-gradient"></linearGradient><linearGradient id="linear-gradient-5" x1="105.27" y1="741.14" x2="69.61" y2="776.05" href="#linear-gradient"></linearGradient><linearGradient id="linear-gradient-6" x1="116.99" y1="753.11" x2="81.32" y2="788.02" href="#linear-gradient"></linearGradient><linearGradient id="linear-gradient-7" x1="119.35" y1="755.53" x2="83.69" y2="790.44" href="#linear-gradient"></linearGradient><linearGradient id="linear-gradient-8" x1="103.05" y1="738.88" x2="67.39" y2="773.78" href="#linear-gradient"></linearGradient></defs><title>Artboard 1</title><g id="_300x150" data-name=" 300x150"><path class="cls-2" d="M1,50.66c0,2.62.85,3.53,3.16,3.53h.13a12.1,12.1,0,0,0,2.24-.25c.17,0,.22.4.22.64S5.4,55,4.21,55H4.08C1.32,55,0,53.94,0,50.75V47.33c0-3.18,1.33-4.25,4.11-4.25h.13c1,0,2.5.18,2.5.42s0,.65-.19.65a18.72,18.72,0,0,0-2.24-.25H4.17C1.83,43.9,1,44.8,1,47.42Z"></path><path class="cls-2" d="M15.43,54.81c-.34,0-.49-.12-.49-.22V43.33c0-.11.35-.24.69-.24s.28.21.28.44V54h4.85c.18,0,.35.06.35.25s-.09.61-.19.61Z"></path><path class="cls-2" d="M32.63,55c-3,0-4.35-1.06-4.35-4.24V47.31c0-3.19,1.4-4.25,4.35-4.25h.13c2.94,0,4.35,1.06,4.35,4.25v3.42c0,3.18-1.41,4.24-4.35,4.24Zm-3.37-4.24c0,2.57,1,3.43,3.37,3.43h.13c2.42,0,3.37-.86,3.37-3.43V47.37c0-2.56-1-3.43-3.37-3.43h-.13c-2.43,0-3.37.87-3.37,3.43Z"></path><path class="cls-2" d="M52.67,43.35c0-.11.35-.26.67-.26s.29.23.29.45v7.28c0,3.13-1.29,4.17-4,4.17h-.13c-2.61,0-3.88-1-3.88-4.17V43.35c0-.11.36-.26.69-.26s.28.23.28.45v7.28c0,2.51.85,3.37,2.91,3.37h.12c2.17,0,3-.86,3-3.37Z"></path><path class="cls-2" d="M66,43.28c3.16,0,4.65,1.08,4.65,4.25v3c0,3.18-1.49,4.25-4.65,4.25H63c-.37,0-.61,0-.61-.25V43.7c0-.37.24-.42.5-.42Zm-2.64.85V54H66c2.62,0,3.67-.88,3.67-3.49V47.64c0-2.61-1-3.51-3.67-3.51Z"></path><path class="cls-2" d="M86.6,43.28c2.28,0,2.86,1.33,2.86,2.92v.09c0,1.59-.55,2.26-1.4,2.48.65.11,1.62.74,1.62,2.76v.3c0,2.35-1.1,3-3.08,3H82.89c-.24,0-.56-.1-.56-.25V43.7c0-.32.09-.42.48-.42Zm-3.33.84v4.32h3.28c1.47,0,2-.7,2-2.15V46.2c0-1.25-.45-2.08-1.91-2.08Zm0,5.08V54H86.6c1.54,0,2.14-.44,2.14-2.14v-.3c0-1.62-.65-2.33-2.11-2.33Z"></path><path class="cls-2" d="M98.16,43.7c0-.22.1-.42.31-.42h3.32c2.89,0,3.64.88,3.64,3.3v.16c0,2-.51,2.94-2.43,3.18l2.51,4.55a.78.78,0,0,1,.13.34c0,.14-.16.18-.31.18a.91.91,0,0,1-.85-.43L102,50H99.13v4.58c0,.24-.08.41-.27.41s-.69-.11-.69-.22Zm1,.43v5h2.7c2.14,0,2.65-.43,2.65-2.42v-.16c0-2-.51-2.42-2.65-2.42Z"></path><path class="cls-2" d="M114.48,55c-.32,0-.68-.11-.68-.22V43.33c0-.11.36-.24.68-.24s.29.21.29.44v11C114.77,54.81,114.68,55,114.48,55Z"></path><path class="cls-2" d="M124.24,50.66c0,2.61,1,3.5,3.44,3.5h.17a12,12,0,0,0,2.53-.27V49.55c0-.12.27-.2.64-.2s.32.13.32.45V54c0,.38-.07.45-.24.51a11.91,11.91,0,0,1-3.25.45h-.14c-3,0-4.42-1.06-4.42-4.24V47.34c0-3.19,1.5-4.25,4.58-4.25h.32c1.82,0,3.26.23,3.26.52s-.13.63-.3.63a10.65,10.65,0,0,0-2.87-.3H128c-2.64,0-3.68.88-3.68,3.49Z"></path><path class="cls-2" d="M145.49,51h-4.2L140,54.81c-.06.18-.37.18-.68.18-.14,0-.27,0-.27-.17l0-.14,3.81-11.35c.06-.15.37-.24.72-.24.16,0,.24.1.3.27l3.83,11.32a.57.57,0,0,1,0,.14c0,.14-.15.17-.27.17-.47,0-.69,0-.75-.27Zm-4-.83h3.7l-1.72-5.2a4.42,4.42,0,0,1-.13-.61c0,.2-.07.41-.12.61Z"></path><path class="cls-2" d="M159.24,43.28c3.17,0,4.66,1.08,4.66,4.25v3c0,3.18-1.49,4.25-4.66,4.25h-3c-.37,0-.61,0-.61-.25V43.7c0-.37.25-.42.5-.42Zm-2.63.85V54h2.63c2.62,0,3.68-.88,3.68-3.49V47.64c0-2.61-1.06-3.51-3.68-3.51Z"></path><path class="cls-2" d="M172.41,43.7c0-.3.09-.42.29-.42h5.94c.18,0,.36.07.36.26s-.1.61-.19.61h-5.46v4.39h4.94c.17,0,.37.07.37.26s-.14.61-.23.61h-5.08V54h5.29c.18,0,.36.06.36.25s-.1.61-.19.61H173c-.3,0-.6-.05-.6-.24Z"></path><g class="cls-3"><path class="cls-4" d="M121.48,10.55a1.06,1.06,0,0,0-1-1.06H58.11a1.06,1.06,0,0,0,0,2.11h62.32A1.06,1.06,0,0,0,121.48,10.55Z"></path><path class="cls-5" d="M121.56,15.29a1.06,1.06,0,0,0-1-1.06H58.11a1.06,1.06,0,0,0,0,2.11h62.4a1,1,0,0,0,1-1Z"></path><path class="cls-6" d="M122,20A1,1,0,0,0,121,19H58.11a1.05,1.05,0,0,0,0,2.1H121A1,1,0,0,0,122,20Z"></path><path class="cls-7" d="M121.48,24.75a1.06,1.06,0,0,0-1.06-1.05H58.11a1.05,1.05,0,0,0,0,2.1h62.32A1,1,0,0,0,121.48,24.75Z"></path><path class="cls-8" d="M121,29.5a1,1,0,0,0-1-1.05H58.11a1.06,1.06,0,0,0,0,2.11H119.9A1.06,1.06,0,0,0,121,29.5Z"></path><path class="cls-9" d="M120.51,5.85a1,1,0,0,0-1.05-1H58.11a1.05,1.05,0,0,0,0,2.1h61.35a1,1,0,0,0,1.05-1Z"></path><path class="cls-10" d="M120.43,1.09a1,1,0,0,0-1.05-1H58.14a1.05,1.05,0,0,0,0,2.1h61.24a1,1,0,0,0,1.05-1Z"></path><path class="cls-11" d="M121.48,34.22a1.06,1.06,0,0,0-1-1.08H58.11a1.05,1.05,0,0,0,0,2.1h62.32A1.05,1.05,0,0,0,121.48,34.22Z"></path></g></g></svg> 